# xmcd
#
# Track frame offsets:
#	150
#	13424
#	28142
#	50191
#	65726
#	86248
#	98577
#	117855
#	137749
#	155668
#	171510
#	189960
#	207974
#	223802
#	243463
#
# Disc length: 3492 seconds
#
# Revision: 1
# Processed by: cddbd v1.5.2PL0 Copyright (c) Steve Scherf et al.
# Submitted via: audiograbber 1.83.01
#
DISCID=e70da20f
DTITLE=Various Artist - CB60226
DYEAR=1900
DGENRE=Karaoke
TTITLE0=Darryl Worley - Sideways
TTITLE1=Derailres, The - More Of Your Love
TTITLE2=Mark Wills And Jamie O'Neal - I'm Not Gonna Do Anything Without You
TTITLE3=Blake Shelton - All Over Me
TTITLE4=David Ball - Riding With Private Malone
TTITLE5=Patty Loveless - The Boys Are Back In Town
TTITLE6=Chris Cagle - I Breathe In, I Breathe Out
TTITLE7=Brooks and Dunn - The Long Goodbye
TTITLE8=Wild Horses, The - I will Survive
TTITLE9=Steve Azar - I Don't Have To Be Me Til Monday
TTITLE10=Clint Black and Lisa Hartman Black - Easy For Me To Say
TTITLE11=Rascal Flatts - I'm Movin' On
TTITLE12=Garth Brooks and George Jones - Beer Run
TTITLE13=George Strait - Run
TTITLE14=Aaron Tippin - Where The Stars And Stripes And The Eagle Fly
EXTD=
EXTT0=
EXTT1=
EXTT2=
EXTT3=
EXTT4=
EXTT5=
EXTT6=
EXTT7=
EXTT8=
EXTT9=
EXTT10=
EXTT11=
EXTT12=
EXTT13=
EXTT14=
PLAYORDER=
